<?xml version="1.0" encoding="utf-8"?>
<!-- Generator: Adobe Illustrator 23.0.2, SVG Export Plug-In . SVG Version: 6.00 Build 0)  -->
<svg version="1.1" id="Layer_1" xmlns="http://www.w3.org/2000/svg" xmlns:xlink="http://www.w3.org/1999/xlink" x="0px" y="0px"
	 viewBox="0 0 16 16" style="enable-background:new 0 0 16 16;" xml:space="preserve">
<style type="text/css">
	.st0{fill:#FFFFFF;}
</style>
<path class="st0" d="M3.96,11.9C2.72,10.6,1.47,9.31,0.18,7.98c1.2-1.19,2.46-2.45,3.87-3.85c-1.42,0-2.64,0-3.91,0
	c0-1.32,0-2.57,0-3.85C0.19,0.26,0.27,0.2,0.35,0.2C3.43,0.2,6.5,0.12,9.57,0.22c1.94,0.06,3.67,0.8,4.98,2.33
	c1.4,1.64,1.6,3.46,0.71,5.39c-0.71,1.55-1.89,2.69-3.42,3.69c0-2.56,0-4.99,0-7.47c-2.54,0-5,0-7.41,0
	c3.79,3.78,7.61,7.6,11.44,11.42c-0.05,0.07-0.1,0.14-0.15,0.22c-0.16,0.02-0.33,0.05-0.49,0.05c-2.27,0-4.54,0.02-6.81-0.01
	c-0.3,0-0.66-0.15-0.87-0.36c-1.2-1.15-2.36-2.34-3.53-3.52C4.01,11.94,3.99,11.92,3.96,11.9z"/>
<path class="st0" d="M4.03,11.97c0,1.27,0,2.55,0,3.85c-1.34,0-2.59,0-3.89,0c0-1.28,0-2.54,0-3.92c1.28,0,2.55,0,3.82,0
	C3.99,11.92,4.01,11.94,4.03,11.97z"/>
</svg>
